<svg width="84" height="84" viewBox="0 0 84 84" fill="none" xmlns="http://www.w3.org/2000/svg">
<g filter="url(#filter0_ii_277_64)">
<path d="M51.1921 4.86002V32.076H78.5701C80.5141 32.076 81.9181 33.642 82.7821 36.774C83.2141 38.394 83.4301 39.96 83.4301 41.472C83.4301 42.984 83.2141 44.55 82.7821 46.17C81.9181 49.302 80.5141 50.868 78.5701 50.868H51.1921V78.57C51.1921 80.514 49.6261 81.918 46.4941 82.782C44.9821 83.214 43.4161 83.43 41.7961 83.43L37.0981 82.782C33.9661 81.918 32.4001 80.514 32.4001 78.57V50.868H4.8601C2.9161 50.868 1.5121 49.302 0.648104 46.17C0.216104 44.55 0.000103593 42.984 0.000103593 41.472C0.000103593 39.96 0.216104 38.394 0.648104 36.774C1.5121 33.642 2.9161 32.076 4.8601 32.076H32.4001V4.86002C32.4001 2.91602 33.9661 1.51202 37.0981 0.648019C38.6101 0.216018 40.1761 1.72853e-05 41.7961 1.72853e-05L46.4941 0.648019C49.6261 1.51202 51.1921 2.91602 51.1921 4.86002Z" fill="black"/>
</g>
<defs>
<filter id="filter0_ii_277_64" x="0" y="-4" width="83.4302" height="91.43" filterUnits="userSpaceOnUse" color-interpolation-filters="sRGB">
<feFlood flood-opacity="0" result="BackgroundImageFix"/>
<feBlend mode="normal" in="SourceGraphic" in2="BackgroundImageFix" result="shape"/>
<feColorMatrix in="SourceAlpha" type="matrix" values="0 0 0 0 0 0 0 0 0 0 0 0 0 0 0 0 0 0 127 0" result="hardAlpha"/>
<feOffset dy="-4"/>
<feGaussianBlur stdDeviation="2"/>
<feComposite in2="hardAlpha" operator="arithmetic" k2="-1" k3="1"/>
<feColorMatrix type="matrix" values="0 0 0 0 0 0 0 0 0 0 0 0 0 0 0 0 0 0 0.1 0"/>
<feBlend mode="normal" in2="shape" result="effect1_innerShadow_277_64"/>
<feColorMatrix in="SourceAlpha" type="matrix" values="0 0 0 0 0 0 0 0 0 0 0 0 0 0 0 0 0 0 127 0" result="hardAlpha"/>
<feOffset dy="4"/>
<feGaussianBlur stdDeviation="2"/>
<feComposite in2="hardAlpha" operator="arithmetic" k2="-1" k3="1"/>
<feColorMatrix type="matrix" values="0 0 0 0 0.462778 0 0 0 0 0.434689 0 0 0 0 0.434689 0 0 0 0.25 0"/>
<feBlend mode="normal" in2="effect1_innerShadow_277_64" result="effect2_innerShadow_277_64"/>
</filter>
</defs>
</svg>
